<svg xmlns="http://www.w3.org/2000/svg" width="512" height="512" fill="none"><rect width="512" height="512" fill="url(#a)" rx="256"/><path stroke="url(#b)" stroke-linecap="round" stroke-linejoin="round" stroke-width="28.9167" d="M227.167 294.347v23.442c-.055 4.939-1.377 9.782-3.841 14.063-2.464 4.282-5.987 7.858-10.23 10.387-9.008 6.673-16.336 15.354-21.402 25.354-5.065 10.001-7.728 21.045-7.777 32.255m100.916-105.501v23.442c.055 4.939 1.377 9.782 3.841 14.063 2.464 4.282 5.987 7.858 10.23 10.387 9.008 6.673 16.336 15.354 21.402 25.354 5.065 10.001 7.728 21.045 7.777 32.255M342.5 212.75h21.625c9.559 0 18.726-3.797 25.485-10.556 6.759-6.76 10.557-15.927 10.557-25.486 0-9.559-3.798-18.726-10.557-25.485s-15.926-10.556-25.485-10.556H342.5m0 72.083c0 22.941-9.113 44.943-25.335 61.165S278.941 299.25 256 299.25c-22.941 0-44.943-9.113-61.165-25.335S169.5 235.691 169.5 212.75m173 0v-86.5c0-3.824-1.519-7.491-4.222-10.194-2.704-2.704-6.371-4.223-10.195-4.223H183.917c-3.824 0-7.491 1.519-10.194 4.223-2.704 2.703-4.223 6.37-4.223 10.194v86.5m-28.833 187.417h230.666M169.5 212.75h-21.625c-9.559 0-18.726-3.797-25.485-10.556-6.759-6.76-10.557-15.927-10.557-25.486 0-9.559 3.798-18.726 10.557-25.485s15.926-10.556 25.485-10.556H169.5"/><defs><linearGradient id="a" x1="0" x2="512" y1="0" y2="512" gradientUnits="userSpaceOnUse"><stop stop-color="#1F3A8B"/><stop offset="1" stop-color="#3B82F6"/></linearGradient><linearGradient id="b" x1="256" x2="256" y1="111.833" y2="400.167" gradientUnits="userSpaceOnUse"><stop stop-color="#FAFAFA"/><stop offset="1" stop-color="#E5E5E5"/></linearGradient></defs></svg>