<svg xmlns="http://www.w3.org/2000/svg" width="96" height="96" fill="none"><rect width="96" height="96" fill="url(#a)" rx="48"/><path stroke="url(#b)" stroke-linecap="round" stroke-linejoin="round" stroke-width="5.42188" d="M42.5938 55.1901v4.3953c-.0103.9261-.2582 1.8341-.7202 2.6369-.462.8028-1.1225 1.4734-1.9181 1.9476-1.6891 1.251-3.0631 2.8788-4.0128 4.7539-.9498 1.8751-1.4491 3.9459-1.4583 6.0478m18.9219-19.7815v4.3953c.0102.9261.2581 1.8341.7201 2.6369.462.8028 1.1225 1.4734 1.9181 1.9476 1.6891 1.251 3.0631 2.8788 4.0128 4.7539.9498 1.8751 1.4491 3.9459 1.4583 6.0478m2.7032-35.081h4.0546c1.7923 0 3.5112-.712 4.7785-1.9793 1.2674-1.2673 1.9794-2.9862 1.9794-4.7785s-.712-3.5111-1.9794-4.7785c-1.2673-1.2673-2.9862-1.9793-4.7785-1.9793h-4.0546m0 13.5156c0 4.3015-1.7088 8.4268-4.7504 11.4684-3.0416 3.0416-7.1669 4.7504-11.4684 4.7504-4.3015 0-8.4268-1.7088-11.4684-4.7504-3.0416-3.0416-4.7503-7.1669-4.7503-11.4684m32.4375 0V23.6719c0-.7169-.2848-1.4045-.7918-1.9114-.5069-.507-1.1945-.7917-1.9114-.7917H34.4844c-.7169 0-1.4045.2847-1.9114.7917-.507.5069-.7917 1.1945-.7917 1.9114v16.2187M26.375 75.0313h43.25M31.7813 39.8906h-4.0547c-1.7923 0-3.5112-.712-4.7785-1.9793-1.2674-1.2673-1.9793-2.9862-1.9793-4.7785s.7119-3.5111 1.9793-4.7785c1.2673-1.2673 2.9862-1.9793 4.7785-1.9793h4.0546"/><defs><linearGradient id="a" x1="0" x2="96" y1="0" y2="96" gradientUnits="userSpaceOnUse"><stop stop-color="#1F3A8B"/><stop offset="1" stop-color="#3B82F6"/></linearGradient><linearGradient id="b" x1="48" x2="48" y1="20.9687" y2="75.0312" gradientUnits="userSpaceOnUse"><stop stop-color="#FAFAFA"/><stop offset="1" stop-color="#E5E5E5"/></linearGradient></defs></svg>