<svg width="512" height="512" viewBox="0 0 512 512" fill="none" xmlns="http://www.w3.org/2000/svg">
<rect width="512" height="512" rx="128" fill="url(#paint0_linear_11_3)" style="mix-blend-mode:plus-lighter"/>
<path d="M179.359 304L106.559 178.24C103.42 172.814 101.943 166.585 102.313 160.328C102.683 154.07 104.882 148.059 108.639 143.04L134.399 108.8C137.379 104.826 141.244 101.6 145.688 99.3783C150.131 97.1566 155.031 96 159.999 96H351.999C356.967 96 361.866 97.1566 366.31 99.3783C370.753 101.6 374.618 104.826 377.599 108.8L403.199 143.04C406.98 148.042 409.208 154.046 409.606 160.304C410.004 166.562 408.555 172.799 405.439 178.24L332.639 304M239.999 256L145.919 99.2M271.999 256L366.079 99.2M191.999 176H319.999M335.999 336C335.999 380.183 300.181 416 255.999 416C211.816 416 175.999 380.183 175.999 336C175.999 291.817 211.816 256 255.999 256C300.181 256 335.999 291.817 335.999 336Z" stroke="url(#paint1_linear_11_3)" stroke-width="32" stroke-linecap="round" stroke-linejoin="round"/>
<defs>
<linearGradient id="paint0_linear_11_3" x1="256" y1="0" x2="256" y2="512" gradientUnits="userSpaceOnUse">
<stop stop-color="#0284C7"/>
<stop offset="1" stop-color="#0369A1"/>
</linearGradient>
<linearGradient id="paint1_linear_11_3" x1="255.964" y1="96" x2="255.964" y2="416" gradientUnits="userSpaceOnUse">
<stop stop-color="#F5F5F5"/>
<stop offset="1" stop-color="#D4D4D4"/>
</linearGradient>
</defs>
</svg>
